<?xml version="1.0" encoding="UTF-8" standalone="no"?>
<!DOCTYPE svg PUBLIC "-//W3C//DTD SVG 20010904//EN"
              "http://www.w3.org/TR/2001/REC-SVG-20010904/DTD/svg10.dtd">

<svg xmlns="http://www.w3.org/2000/svg"
     viewBox="0 0 50 50">
  <path id="Unnamed"
        fill="none" stroke="black" stroke-width="2"
        d="M 30.78,25.06
           C 30.78,25.06 42.91,21.09 42.91,21.09
             42.91,21.09 44.75,21.72 44.75,21.72
             44.75,21.72 45.38,23.38 45.38,23.41
             45.38,23.44 44.44,24.88 44.44,24.88
             44.44,24.88 42.41,25.97 42.41,25.97
             42.41,25.97 38.75,27.38 38.75,27.41
             38.75,27.44 35.69,28.84 35.66,28.84
             35.62,28.84 32.28,29.91 32.28,29.91
             32.28,29.91 29.97,30.72 29.97,30.72
             29.97,30.72 26.44,31.16 26.44,31.16
             26.44,31.16 22.62,29.06 22.62,29.06
             22.62,29.06 18.88,26.44 18.88,26.44
             18.88,26.44 15.03,24.00 15.03,24.00
             15.03,24.00 12.22,21.62 12.22,21.62
             12.22,21.62 8.97,18.75 8.97,18.75
             8.97,18.75 7.78,16.03 7.78,16.03
             7.78,16.03 8.03,13.22 8.03,13.22
             8.03,13.22 9.22,11.12 9.22,11.12
             9.22,11.12 11.25,9.94 11.25,9.94
             11.25,9.94 14.00,8.66 14.00,8.66
             14.00,8.66 18.88,7.06 18.88,7.06
             18.88,7.06 24.91,5.22 24.91,5.22
             24.91,5.22 29.34,5.28 29.34,5.28
             29.34,5.28 34.91,8.84 34.91,8.84
             34.91,8.84 39.19,11.47 39.19,11.47
             39.19,11.47 42.59,13.56 42.59,13.56
             42.59,13.56 46.22,16.22 46.22,16.22
             46.22,16.22 47.94,18.72 47.94,18.72
             47.94,18.72 48.62,20.59 48.69,20.59
             48.75,20.59 48.78,25.47 48.78,25.47
             48.78,25.47 47.81,27.00 47.81,27.00
             47.81,27.00 46.53,28.66 46.53,28.66
             46.53,28.66 43.88,30.50 43.88,30.50
             43.88,30.50 40.12,32.06 40.12,32.06
             40.12,32.06 38.53,32.56 38.53,32.56
             38.53,32.56 35.56,33.53 35.56,33.53
             35.56,33.53 32.44,34.69 32.44,34.69
             32.44,34.69 28.59,36.00 28.59,36.00
             28.59,36.00 16.62,47.16 16.62,47.16
             16.62,47.16 16.25,48.03 16.25,48.03
             16.25,48.03 13.94,48.16 13.97,48.16
             14.00,48.16 10.53,43.88 10.53,43.88
             10.53,43.88 9.50,41.38 9.50,41.38
             9.50,41.38 8.25,38.22 8.25,38.22
             8.25,38.22 6.50,35.25 6.50,35.25
             6.50,35.25 5.38,33.31 5.38,33.31
             5.38,33.31 4.16,30.91 4.16,30.91
             4.16,30.91 3.19,29.00 3.19,29.00
             3.19,29.00 1.81,26.88 1.81,26.88
             1.81,26.88 1.28,25.28 1.28,25.28
             1.28,25.28 1.12,21.34 1.16,21.34
             1.19,21.34 2.66,19.44 2.66,19.44
             2.66,19.44 4.72,17.44 4.72,17.44
             4.72,17.44 6.91,17.00 6.94,17.00" />
</svg>
